<svg width="800" height="800" viewBox="0 0 800 800" fill="none" xmlns="http://www.w3.org/2000/svg">
  <rect width="800" height="800" rx="48" fill="#F7F2EB"/>
  <circle cx="400" cy="250" r="150" fill="#F2D3B8"/>
  <circle cx="400" cy="250" r="108" fill="#FFF7EF"/>
  <path d="M350 185C350 157.386 372.386 135 400 135C427.614 135 450 157.386 450 185V230H350V185Z" fill="#B56B4B"/>
  <rect x="328" y="224" width="144" height="292" rx="36" fill="#F08A5B"/>
  <rect x="350" y="258" width="100" height="210" rx="26" fill="#F9B36C"/>
  <rect x="365" y="300" width="70" height="95" rx="18" fill="#FFF0D8"/>
  <path d="M492 315C532 330 572 355 592 396C610 434 603 490 560 521" stroke="#C67B54" stroke-width="28" stroke-linecap="round"/>
  <circle cx="560" cy="520" r="34" fill="#D88A5C"/>
  <path d="M543 521L517 560" stroke="#B56B4B" stroke-width="18" stroke-linecap="round"/>
  <path d="M258 480C212 432 208 356 258 303" stroke="#F1B57E" stroke-width="18" stroke-linecap="round"/>
  <path d="M534 190C566 190 592 216 592 248" stroke="#E7C4A2" stroke-width="18" stroke-linecap="round"/>
</svg>