<svg width="800" height="800" viewBox="0 0 800 800" fill="none" xmlns="http://www.w3.org/2000/svg">
  <rect width="800" height="800" rx="48" fill="#F5F4F1"/>
  <ellipse cx="400" cy="648" rx="224" ry="30" fill="#D7D0C9"/>
  <rect x="286" y="192" width="228" height="382" rx="52" fill="#5D4A69"/>
  <rect x="312" y="246" width="176" height="252" rx="34" fill="#D8C7D6"/>
  <rect x="332" y="266" width="136" height="182" rx="26" fill="#F3E7F0"/>
  <path d="M352 170C352 149 369 132 390 132H410C431 132 448 149 448 170V194H352V170Z" fill="#3E3245"/>
  <rect x="346" y="112" width="108" height="44" rx="14" fill="#7D658A"/>
  <rect x="334" y="122" width="132" height="22" rx="11" fill="#E4D8E4"/>
  <path d="M517 252C564 280 597 329 602 385C608 449 577 509 522 544" stroke="#7D658A" stroke-width="28" stroke-linecap="round"/>
  <path d="M260 302C235 350 236 414 266 459" stroke="#C2B2C7" stroke-width="18" stroke-linecap="round"/>
  <circle cx="552" cy="542" r="40" fill="#DDD2E0"/>
  <path d="M531 542L503 576" stroke="#5D4A69" stroke-width="18" stroke-linecap="round"/>
</svg>